<mxfile host="app.diagrams.net" modified="2020-12-07T05:14:12.498Z" agent="5.0 (Windows NT 10.0; Win64; x64) AppleWebKit/537.36 (KHTML, like Gecko) Chrome/86.0.4240.198 Safari/537.36" etag="4egsTh4qbZ1SUJs7_0LG" version="13.10.8" type="github">
  <diagram id="4RwiEouYS47H_-iD0yuU" name="Page-1">
    <mxGraphModel dx="1422" dy="1931" grid="1" gridSize="10" guides="1" tooltips="1" connect="1" arrows="1" fold="1" page="1" pageScale="1" pageWidth="827" pageHeight="1169" math="0" shadow="0">
      <root>
        <mxCell id="0" />
        <mxCell id="1" parent="0" />
        <mxCell id="IvaYHX85mgmGe612xIQt-1" value="&lt;p style=&quot;margin: 0px ; margin-top: 4px ; text-align: center&quot;&gt;&lt;i&gt;&amp;lt;&amp;lt;Interface&amp;gt;&amp;gt;&lt;/i&gt;&lt;br&gt;&lt;b&gt;IConnect&lt;/b&gt;&lt;br&gt;&lt;/p&gt;&lt;hr size=&quot;1&quot;&gt;&lt;p style=&quot;margin: 0px ; margin-left: 4px&quot;&gt;&lt;br&gt;&lt;/p&gt;&lt;hr size=&quot;1&quot;&gt;&lt;p style=&quot;margin: 0px ; margin-left: 4px&quot;&gt;void connect(BluetoothDevice bluetoothDevice, ConnectBlueCallBack connectBlueCallBack);&lt;br&gt;&lt;/p&gt;" style="verticalAlign=top;align=left;overflow=fill;fontSize=12;fontFamily=Helvetica;html=1;" vertex="1" parent="1">
          <mxGeometry x="130" y="45" width="510" height="100" as="geometry" />
        </mxCell>
        <mxCell id="IvaYHX85mgmGe612xIQt-2" value="Connect" style="swimlane;fontStyle=1;align=center;verticalAlign=top;childLayout=stackLayout;horizontal=1;startSize=26;horizontalStack=0;resizeParent=1;resizeParentMax=0;resizeLast=0;collapsible=1;marginBottom=0;" vertex="1" parent="1">
          <mxGeometry x="130" y="280" width="510" height="60" as="geometry" />
        </mxCell>
        <mxCell id="IvaYHX85mgmGe612xIQt-4" value="" style="line;strokeWidth=1;fillColor=none;align=left;verticalAlign=middle;spacingTop=-1;spacingLeft=3;spacingRight=3;rotatable=0;labelPosition=right;points=[];portConstraint=eastwest;" vertex="1" parent="IvaYHX85mgmGe612xIQt-2">
          <mxGeometry y="26" width="510" height="8" as="geometry" />
        </mxCell>
        <mxCell id="IvaYHX85mgmGe612xIQt-5" value="void connect(BluetoothDevice bluetoothDevice, ConnectBlueCallBack connectBlueCallBack)" style="text;strokeColor=none;fillColor=none;align=left;verticalAlign=top;spacingLeft=4;spacingRight=4;overflow=hidden;rotatable=0;points=[[0,0.5],[1,0.5]];portConstraint=eastwest;" vertex="1" parent="IvaYHX85mgmGe612xIQt-2">
          <mxGeometry y="34" width="510" height="26" as="geometry" />
        </mxCell>
        <mxCell id="IvaYHX85mgmGe612xIQt-7" value="" style="endArrow=block;dashed=1;endFill=0;endSize=12;html=1;" edge="1" parent="1" source="IvaYHX85mgmGe612xIQt-2" target="IvaYHX85mgmGe612xIQt-1">
          <mxGeometry width="160" relative="1" as="geometry">
            <mxPoint x="260" y="490" as="sourcePoint" />
            <mxPoint x="420" y="490" as="targetPoint" />
          </mxGeometry>
        </mxCell>
        <mxCell id="IvaYHX85mgmGe612xIQt-8" value="BluetoothSocketUtils" style="swimlane;fontStyle=1;align=center;verticalAlign=top;childLayout=stackLayout;horizontal=1;startSize=26;horizontalStack=0;resizeParent=1;resizeParentMax=0;resizeLast=0;collapsible=1;marginBottom=0;" vertex="1" parent="1">
          <mxGeometry x="130" y="470" width="510" height="242" as="geometry" />
        </mxCell>
        <mxCell id="IvaYHX85mgmGe612xIQt-9" value="BluetoothAdapter mBluetoothAdapter" style="text;strokeColor=none;fillColor=none;align=left;verticalAlign=top;spacingLeft=4;spacingRight=4;overflow=hidden;rotatable=0;points=[[0,0.5],[1,0.5]];portConstraint=eastwest;" vertex="1" parent="IvaYHX85mgmGe612xIQt-8">
          <mxGeometry y="26" width="510" height="26" as="geometry" />
        </mxCell>
        <mxCell id="IvaYHX85mgmGe612xIQt-10" value="" style="line;strokeWidth=1;fillColor=none;align=left;verticalAlign=middle;spacingTop=-1;spacingLeft=3;spacingRight=3;rotatable=0;labelPosition=right;points=[];portConstraint=eastwest;" vertex="1" parent="IvaYHX85mgmGe612xIQt-8">
          <mxGeometry y="52" width="510" height="8" as="geometry" />
        </mxCell>
        <mxCell id="IvaYHX85mgmGe612xIQt-11" value="void setBluetoothName(String name)" style="text;strokeColor=none;fillColor=none;align=left;verticalAlign=top;spacingLeft=4;spacingRight=4;overflow=hidden;rotatable=0;points=[[0,0.5],[1,0.5]];portConstraint=eastwest;" vertex="1" parent="IvaYHX85mgmGe612xIQt-8">
          <mxGeometry y="60" width="510" height="26" as="geometry" />
        </mxCell>
        <mxCell id="IvaYHX85mgmGe612xIQt-12" value="void setDiscoverableTimeout(int timeout)" style="text;strokeColor=none;fillColor=none;align=left;verticalAlign=top;spacingLeft=4;spacingRight=4;overflow=hidden;rotatable=0;points=[[0,0.5],[1,0.5]];portConstraint=eastwest;" vertex="1" parent="IvaYHX85mgmGe612xIQt-8">
          <mxGeometry y="86" width="510" height="26" as="geometry" />
        </mxCell>
        <mxCell id="IvaYHX85mgmGe612xIQt-13" value="boolean isBlueEnable()" style="text;strokeColor=none;fillColor=none;align=left;verticalAlign=top;spacingLeft=4;spacingRight=4;overflow=hidden;rotatable=0;points=[[0,0.5],[1,0.5]];portConstraint=eastwest;" vertex="1" parent="IvaYHX85mgmGe612xIQt-8">
          <mxGeometry y="112" width="510" height="26" as="geometry" />
        </mxCell>
        <mxCell id="IvaYHX85mgmGe612xIQt-14" value="boolean isSupportBlue()" style="text;strokeColor=none;fillColor=none;align=left;verticalAlign=top;spacingLeft=4;spacingRight=4;overflow=hidden;rotatable=0;points=[[0,0.5],[1,0.5]];portConstraint=eastwest;" vertex="1" parent="IvaYHX85mgmGe612xIQt-8">
          <mxGeometry y="138" width="510" height="26" as="geometry" />
        </mxCell>
        <mxCell id="IvaYHX85mgmGe612xIQt-15" value="void connect(BluetoothDevice device, ConnectBlueCallBack callBack)" style="text;strokeColor=none;fillColor=none;align=left;verticalAlign=top;spacingLeft=4;spacingRight=4;overflow=hidden;rotatable=0;points=[[0,0.5],[1,0.5]];portConstraint=eastwest;" vertex="1" parent="IvaYHX85mgmGe612xIQt-8">
          <mxGeometry y="164" width="510" height="26" as="geometry" />
        </mxCell>
        <mxCell id="IvaYHX85mgmGe612xIQt-16" value="String getBluetoothName()" style="text;strokeColor=none;fillColor=none;align=left;verticalAlign=top;spacingLeft=4;spacingRight=4;overflow=hidden;rotatable=0;points=[[0,0.5],[1,0.5]];portConstraint=eastwest;" vertex="1" parent="IvaYHX85mgmGe612xIQt-8">
          <mxGeometry y="190" width="510" height="26" as="geometry" />
        </mxCell>
        <mxCell id="IvaYHX85mgmGe612xIQt-17" value="String getAddress()" style="text;strokeColor=none;fillColor=none;align=left;verticalAlign=top;spacingLeft=4;spacingRight=4;overflow=hidden;rotatable=0;points=[[0,0.5],[1,0.5]];portConstraint=eastwest;" vertex="1" parent="IvaYHX85mgmGe612xIQt-8">
          <mxGeometry y="216" width="510" height="26" as="geometry" />
        </mxCell>
        <mxCell id="IvaYHX85mgmGe612xIQt-18" value="" style="endArrow=open;endSize=12;dashed=1;html=1;" edge="1" parent="1" source="IvaYHX85mgmGe612xIQt-2" target="IvaYHX85mgmGe612xIQt-8">
          <mxGeometry width="160" relative="1" as="geometry">
            <mxPoint x="-30" y="450" as="sourcePoint" />
            <mxPoint x="120" y="450" as="targetPoint" />
          </mxGeometry>
        </mxCell>
        <mxCell id="IvaYHX85mgmGe612xIQt-21" style="rounded=0;orthogonalLoop=1;jettySize=auto;html=1;dashed=1;endArrow=none;endFill=0;" edge="1" parent="1" source="IvaYHX85mgmGe612xIQt-20" target="IvaYHX85mgmGe612xIQt-1">
          <mxGeometry relative="1" as="geometry" />
        </mxCell>
        <mxCell id="IvaYHX85mgmGe612xIQt-20" value="蓝牙连接Connect对外开放接口" style="shape=note2;boundedLbl=1;whiteSpace=wrap;html=1;size=25;verticalAlign=top;align=center;" vertex="1" parent="1">
          <mxGeometry x="560" y="-60" width="120" height="70" as="geometry" />
        </mxCell>
        <mxCell id="IvaYHX85mgmGe612xIQt-24" style="rounded=0;orthogonalLoop=1;jettySize=auto;html=1;dashed=1;endArrow=none;endFill=0;" edge="1" parent="1" source="IvaYHX85mgmGe612xIQt-22" target="IvaYHX85mgmGe612xIQt-2">
          <mxGeometry relative="1" as="geometry" />
        </mxCell>
        <mxCell id="IvaYHX85mgmGe612xIQt-22" value="蓝牙连接接口实现" style="shape=note2;boundedLbl=1;whiteSpace=wrap;html=1;size=25;verticalAlign=top;align=center;" vertex="1" parent="1">
          <mxGeometry x="560" y="180" width="120" height="70" as="geometry" />
        </mxCell>
        <mxCell id="IvaYHX85mgmGe612xIQt-25" style="edgeStyle=none;rounded=0;orthogonalLoop=1;jettySize=auto;html=1;dashed=1;endArrow=none;endFill=0;" edge="1" parent="1" source="IvaYHX85mgmGe612xIQt-23" target="IvaYHX85mgmGe612xIQt-8">
          <mxGeometry relative="1" as="geometry" />
        </mxCell>
        <mxCell id="IvaYHX85mgmGe612xIQt-23" value="蓝牙socket连接工具类" style="shape=note2;boundedLbl=1;whiteSpace=wrap;html=1;size=25;verticalAlign=top;align=center;" vertex="1" parent="1">
          <mxGeometry x="560" y="370" width="120" height="70" as="geometry" />
        </mxCell>
      </root>
    </mxGraphModel>
  </diagram>
</mxfile>
